<svg xmlns="http://www.w3.org/2000/svg" width="64" height="64" viewBox="0 0 64 64">
  <g fill="#000000">
    <rect x="28" y="0" width="8" height="13" rx="3" transform="rotate(0 32 32)"/>
    <rect x="28" y="0" width="8" height="13" rx="3" transform="rotate(45 32 32)"/>
    <rect x="28" y="0" width="8" height="13" rx="3" transform="rotate(90 32 32)"/>
    <rect x="28" y="0" width="8" height="13" rx="3" transform="rotate(135 32 32)"/>
    <rect x="28" y="0" width="8" height="13" rx="3" transform="rotate(180 32 32)"/>
    <rect x="28" y="0" width="8" height="13" rx="3" transform="rotate(225 32 32)"/>
    <rect x="28" y="0" width="8" height="13" rx="3" transform="rotate(270 32 32)"/>
    <rect x="28" y="0" width="8" height="13" rx="3" transform="rotate(315 32 32)"/>
  </g>
  <circle cx="32" cy="32" r="15" fill="none" stroke="#000000" stroke-width="8"/>
</svg>
